<svg version="1.1" id="Layer_1" xmlns="http://www.w3.org/2000/svg" x="0" y="0" viewBox="0 0 68 40" xml:space="preserve">
  <defs/>
  <g id="Layer_2_1_">
    <g id="Layer_1-2">
      <path class="st0" d="M0 7h68v1H0zM0 15h68v1H0zM0 23h68v1H0zM0 31h68v1H0zM0 39h68v1H0zM0 10h29v3H0zM0 0h28v4H0zM0 18h39v3H0zM0 26h26v3H0zM0 34h32v3H0zM64 29.7l-1.9-1.8.8-.8 1.1 1.2 2.6-2.7.8.8zM64 37.7l-1.9-1.8.8-.8 1.1 1.2 2.6-2.7.8.8zM64 21.7l-1.9-1.8.8-.8 1.1 1.2 2.6-2.7.8.8zM64 13.7l-1.9-1.8.8-.8 1.1 1.2 2.6-2.7.8.8z"/>
    </g>
  </g>
</svg>
