<svg version="1.1" id="Layer_1" xmlns="http://www.w3.org/2000/svg" x="0" y="0" viewBox="0 0 20 68" xml:space="preserve">
  <path fill='currentColor' d="M18 2v16H2V2h16m2-2H0v20h20V0z"/>
  <path fill='currentColor' d="M8 14.8l-3.9-4.2 1.5-1.3L8 11.9 14.4 5l1.5 1.3zM1 43V25h18v18H1zm1.7-8.5L8 40.3l9.3-10-2.9-2.7L8 34.4l-2.3-2.6-3 2.7z"/>
  <path fill='currentColor' d="M18 26v3.6l-.8-.7-1.5-1.4-1.5-1.4-1.4 1.5L8 32.9l-.9-1-1.3-1.5-1.5 1.4-1.5 1.4-.8.6V26h16m0 5v11H2v-6.8l.7.8 3.9 4.2L8 41.8l1.5-1.6 7.8-8.5.7-.7m2-7H0v20h20V24zM8 35.9l6.4-6.9 1.5 1.4L8 38.8l-3.9-4.2 1.5-1.4L8 35.9zM18 50v16H2V50h16m2-2H0v20h20V48z"/>
  <path fill='currentColor' d="M8 62.8l-3.9-4.2 1.5-1.3L8 59.9l6.4-6.9 1.5 1.3z"/>
</svg>
