<svg version="1.1" id="Layer_1" xmlns="http://www.w3.org/2000/svg" x="0" y="0" viewBox="0 0 102 29" xml:space="preserve">
    <path fill='currentColor' d="M102 29H0V0h102v29zM2 27h98V2H2v25z"/>
    <path fill='currentColor' d="M11.2 17.4v-2.9c-.9-.3-1.5-.6-2-1.2-.4-.5-.6-1.1-.6-1.9 0-.7.2-1.4.7-1.9.5-.5 1.1-.8 1.9-.9v-.5h1v.7c.7.1 1.3.3 1.7.7.4.4.7 1 .8 1.6l-1.7.2c-.1-.5-.4-.9-.8-1.1v2.7c1.1.3 1.8.7 2.2 1.2.4.5.6 1.1.6 1.8 0 .8-.2 1.5-.7 2.1s-1.2.9-2.1 1v1.3h-1V19c-.8-.1-1.4-.4-1.9-.9s-.8-1.1-1-2l1.8-.2c.1.4.2.7.4.9s.5.5.7.6zm0-7.2c-.3.1-.5.2-.6.5s-.2.5-.2.7c0 .2.1.5.2.7.1.2.4.4.7.5v-2.4zm1 7.3c.3-.1.6-.2.8-.5.2-.3.3-.5.3-.9 0-.3-.1-.6-.3-.8-.2-.2-.5-.4-.9-.5v2.7z"/>
</svg>
