<svg version="1.1" id="Layer_1" xmlns="http://www.w3.org/2000/svg" x="0" y="0" viewBox="0 0 102 29" xml:space="preserve">
  <path fill='currentColor' d="M102 29H0V0h102v29zM2 27h98V2H2v25z"/>
  <path fill='currentColor' d="M11.4 19v-6.4H8.9v-1.5c.3 0 .7 0 1-.1l.9-.3c.3-.1.5-.4.7-.6.2-.3.3-.6.3-.9h1.6V19h-2zM26.5 14.3V16h-7v-1.7h7zM33.2 17.3c.2.2.5.4.9.4s.7-.1.9-.3.4-.5.6-.8c.1-.3.2-.6.3-1 .1-.3.1-.7.1-.9-.3.4-.6.7-1 .8-.4.2-.8.3-1.3.3-.4 0-.8-.1-1.2-.3-.4-.2-.7-.4-1-.7-.3-.3-.5-.6-.6-1-.1-.4-.2-.8-.2-1.2 0-.5.1-1 .2-1.4.2-.4.4-.8.7-1.1s.7-.6 1.1-.8c.5-.3.9-.3 1.5-.3.7 0 1.4.1 1.8.4.5.3.9.7 1.2 1.2.3.5.5 1 .6 1.6.1.6.2 1.2.2 1.8 0 .6-.1 1.2-.2 1.8-.1.6-.4 1.2-.7 1.6s-.7.9-1.2 1.2c-.5.3-1.1.5-1.8.5-.4 0-.8-.1-1.2-.2-.4-.1-.7-.3-1-.5-.3-.2-.5-.5-.7-.9s-.3-.7-.4-1.1h1.9c.2.4.3.6.5.9zm1.7-3.2c.2-.1.4-.2.5-.4l.3-.6c.1-.2.1-.5.1-.7 0-.2 0-.4-.1-.7l-.3-.6c-.1-.2-.3-.3-.5-.4-.2-.1-.4-.2-.7-.2-.2 0-.4.1-.6.2s-.3.2-.5.4-.2.4-.3.6-.1.4-.1.7c0 .2 0 .5.1.7l.3.6c.1.2.3.3.5.4.2.1.4.2.7.2.2-.1.4-.1.6-.2z"/>
</svg>
