<svg version="1.1" xmlns="http://www.w3.org/2000/svg" viewBox="0 0 83 24">
  <path fill='currentColor' d="M22 2.6H0v4h22v-4zM15 9.6H0v4h15v-4zM22 16.9H0v4h22v-4z"/>
  <path fill='currentColor' d="M32 0h24v24h-4.2v-4.5c0-4.1-3.3-7.4-7.4-7.4S37 15.4 37 19.5V24h-5V0zm12.1 10.6c2.1 0 3.8-1.7 3.8-3.8 0-2.1-1.7-3.8-3.8-3.8s-3.8 1.7-3.8 3.8c0 2.1 1.7 3.8 3.8 3.8zM59 0h24v24h-4.2v-4.5c0-4.1-3.3-7.4-7.4-7.4-4.1 0-7.4 3.3-7.4 7.4V24h-5V0zm12.1 10.6c2.1 0 3.8-1.7 3.8-3.8 0-2.1-1.7-3.8-3.8-3.8-2.1 0-3.8 1.7-3.8 3.8 0 2.1 1.7 3.8 3.8 3.8z"/>
</svg>
