<svg version="1.1" id="Layer_1" xmlns="http://www.w3.org/2000/svg" x="0" y="0" viewBox="0 0 102 29" xml:space="preserve">
  <path fill='currentColor' d="M102 29H0V0h102v29zM2 27h98V2H2v25z"/>
  <path fill='currentColor' d="M19 12c.6 0 1 .4 1 1v3c0 .6-.4 1-1 1h-6c-.6 0-1-.4-1-1v-3c0-.6.4-1 1-1h6m0-2h-6c-1.7 0-3 1.3-3 3v3c0 1.7 1.3 3 3 3h6c1.7 0 3-1.3 3-3v-3c0-1.7-1.3-3-3-3zM33 12c.6 0 1 .4 1 1v3c0 .6-.4 1-1 1h-6c-.6 0-1-.4-1-1v-3c0-.6.4-1 1-1h6m0-2h-6c-1.7 0-3 1.3-3 3v3c0 1.7 1.3 3 3 3h6c1.7 0 3-1.3 3-3v-3c0-1.7-1.3-3-3-3z"/>
  <path fill='currentColor' d="M18 14.4h10v.2H18z"/>
  <path fill='currentColor' d="M28 13.4H18c-.6 0-1 .4-1 1v.2c0 .6.4 1 1 1h10c.6 0 1-.4 1-1v-.2c0-.6-.4-1-1-1z"/>
</svg>
