<svg xmlns="http://www.w3.org/2000/svg" viewBox="-1 0 57 31">
    <path fill='currentColor' d="M0,1V7A1,1,0,0,0,1,8H54a1,1,0,0,0,1-1V1a1,1,0,0,0-1-1H1A1,1,0,0,0,0,1ZM25,5H3V3H25ZM51,6a2,2,0,1,1,2-2A2,2,0,0,1,51,6Z"/>
    <path fill='currentColor' d="M0,12v6a1,1,0,0,0,1,1H54a1,1,0,0,0,1-1V12a1,1,0,0,0-1-1H1A1,1,0,0,0,0,12Zm25,4H3V14H25Zm26,1a2,2,0,1,1,2-2A2,2,0,0,1,51,17Z"/>
    <path fill='currentColor' d="M0,23v6a1,1,0,0,0,1,1H54a1,1,0,0,0,1-1V23a1,1,0,0,0-1-1H1A1,1,0,0,0,0,23Zm25,4H3V25H25Zm26,1a2,2,0,1,1,2-2A2,2,0,0,1,51,28Z"/>
</svg>
